# xmcd CD database file
#
# Track frame offsets:
#	150
#	17745
#	34189
#	51547
#	65780
#	84176
#	97873
#	117233
#	131267
#	148850
#	173224
#	192932
#	212323
#	233885
#	255672
#	273362
#	283602
#	299351
#	315592
#	332528
#
# Disc length: 4600 seconds
#
# Revision: 0
# Processed by: cddbd v1.5.2PL0 Copyright (c) Steve Scherf et al.
# Submitted via: ACXtractor (MTCDDB.DLL V2003.12.21)
#
DISCID=2311f614
DTITLE=Brian Letton - The Best of 
DYEAR=2000
DGENRE=Country
TTITLE0=A Stones Throw From You
TTITLE1=The Digger and his Dog
TTITLE2=I Will Love you all my Life
TTITLE3=The Toy Tin Drum
TTITLE4=A Song for Mum
TTITLE5=She's gotta be Emu Export
TTITLE6=When the Harvest Days are over Jessie Dear
TTITLE7=The Salvos
TTITLE8=When we First Fell in Love
TTITLE9=Nobody's Queen
TTITLE10=One Two Three Waltz
TTITLE11=The Brumbies
TTITLE12=Granny Adeline
TTITLE13=The Old Mitchel Run
TTITLE14=Grandfather Johnston
TTITLE15=Am I that Easy to Forget
TTITLE16=Rolling Wagons
TTITLE17=Footprints
TTITLE18=Blue Christmas
TTITLE19=Give me Australia
EXTD=ID3G:   2 YEAR: 2000
EXTT0=
EXTT1=
EXTT2=
EXTT3=
EXTT4=
EXTT5=
EXTT6=
EXTT7=
EXTT8=
EXTT9=
EXTT10=
EXTT11=
EXTT12=
EXTT13=
EXTT14=
EXTT15=
EXTT16=
EXTT17=
EXTT18=
EXTT19=
PLAYORDER=
